<?xml version="1.0" standalone="no"?>
<!DOCTYPE svg PUBLIC "-//W3C//DTD SVG 20010904//EN"
 "http://www.w3.org/TR/2001/REC-SVG-20010904/DTD/svg10.dtd">
<svg version="1.0" xmlns="http://www.w3.org/2000/svg"
 width="225.000000pt" height="225.000000pt" viewBox="0 0 225.000000 225.000000"
 preserveAspectRatio="xMidYMid meet">

<g transform="translate(0.000000,225.000000) scale(0.100000,-0.100000)"
fill="#000000" stroke="none">
<path d="M1306 1804 c-23 -13 -27 -20 -21 -42 20 -79 18 -88 -14 -102 -17 -7
-40 -21 -52 -31 -50 -43 -87 -16 -91 66 -3 52 -6 60 -24 63 -14 2 -30 -8 -48
-33 -27 -35 -29 -54 -11 -97 6 -16 1 -18 -39 -18 -68 0 -89 25 -81 95 7 52 6
54 -18 60 -37 10 -47 -1 -47 -50 0 -34 -6 -50 -30 -75 -54 -58 -88 -20 -55 62
15 37 15 41 -1 53 -11 7 -28 10 -43 5 -24 -6 -26 -11 -26 -60 l0 -53 -48 -24
c-62 -31 -74 -53 -97 -165 -22 -102 -25 -144 -12 -152 5 -3 7 -50 4 -106 -3
-62 -1 -100 5 -100 6 0 13 52 17 117 3 65 10 121 14 125 5 5 16 6 24 3 12 -5
16 -31 21 -123 3 -64 13 -142 22 -172 9 -32 13 -71 9 -92 -5 -36 -5 -36 28
-35 23 2 33 -3 34 -13 1 -8 2 -23 3 -32 0 -10 8 -18 17 -18 14 0 15 7 10 39
-4 26 1 59 15 102 11 35 21 91 23 124 3 60 15 77 40 56 10 -8 16 -51 21 -138
5 -86 12 -132 21 -141 8 -7 14 -20 14 -28 0 -8 5 -14 10 -14 10 0 13 12 11 41
-1 8 10 58 24 110 14 52 25 112 25 134 0 57 24 119 47 123 37 6 87 -150 100
-313 2 -33 9 -64 14 -70 5 -5 9 -17 9 -27 0 -17 -19 -18 -340 -18 l-340 0 0
-195 c0 -194 0 -195 23 -199 12 -3 328 -4 702 -3 l680 2 3 197 2 198 -352 2
-352 3 -9 38 c-7 29 -5 43 8 64 13 19 18 51 20 122 1 53 9 125 19 160 13 49
14 71 6 96 -19 58 16 88 54 46 14 -16 16 -34 10 -143 -6 -112 -5 -131 15 -186
11 -34 21 -76 21 -93 0 -43 24 -32 28 12 1 19 -3 66 -11 104 -11 61 -11 75 3
107 9 24 22 38 33 38 15 0 17 -11 19 -82 1 -46 1 -108 0 -138 -3 -76 4 -100
28 -100 22 0 27 15 9 26 -7 4 -8 21 -4 48 4 22 9 106 12 186 3 125 7 149 24
170 18 24 20 24 33 7 20 -26 51 -18 51 12 0 15 9 28 23 34 19 9 22 16 16 40
-10 47 -44 118 -80 170 -19 26 -34 51 -34 57 0 5 -18 14 -41 20 -49 14 -56 28
-35 81 16 39 16 43 0 60 -20 23 -30 23 -68 3z m-489 -1022 c16 -10 21 -94 6
-99 -7 -3 -19 12 -27 31 -15 36 -16 36 -75 36 l-61 0 0 -50 c0 -40 3 -50 17
-50 20 0 53 28 53 47 0 7 7 13 15 13 12 0 15 -14 15 -65 0 -51 -3 -65 -15 -65
-8 0 -15 7 -15 15 0 16 -30 35 -55 35 -13 0 -15 -10 -13 -57 l3 -58 49 1 c40
0 53 5 72 28 13 15 24 34 24 42 0 9 7 14 18 12 14 -3 16 -12 13 -48 -1 -25 -5
-48 -8 -52 -6 -11 -273 -10 -273 1 0 5 9 11 19 14 18 4 20 16 23 120 3 113 2
116 -19 122 -13 3 -23 12 -23 20 0 12 21 15 123 15 67 0 127 -4 134 -8z m173
-14 c11 -12 20 -26 20 -31 0 -4 16 -43 36 -85 l36 -77 39 99 c21 55 45 103 51
108 19 11 106 10 113 -2 4 -6 -6 -15 -22 -20 l-28 -10 5 -118 c5 -112 6 -117
28 -120 12 -2 22 -8 22 -13 0 -5 -36 -9 -80 -9 -44 0 -80 4 -80 9 0 5 10 11
23 13 21 3 22 8 25 101 3 94 -8 127 -23 70 -11 -44 -77 -193 -85 -193 -4 0
-12 6 -17 13 -13 17 -83 183 -83 196 0 6 -4 11 -10 11 -12 0 -14 -159 -2 -176
4 -6 15 -13 25 -17 38 -14 15 -27 -48 -27 -36 0 -65 3 -65 6 0 3 10 14 22 23
19 16 21 28 22 124 2 103 1 106 -21 112 -13 3 -23 12 -23 20 0 26 94 20 120
-7z m497 11 c8 -8 17 -8 31 0 10 6 22 7 26 4 10 -10 7 -103 -3 -103 -5 0 -19
16 -31 35 -15 25 -31 36 -56 41 -43 8 -84 -9 -84 -35 0 -26 16 -36 90 -56 100
-27 128 -64 99 -129 -24 -52 -131 -72 -178 -33 -11 9 -15 9 -18 0 -3 -7 -14
-13 -24 -13 -18 0 -20 6 -17 57 3 64 19 78 38 33 26 -64 109 -91 150 -50 41
41 18 63 -98 90 -43 10 -58 19 -73 44 -23 37 -17 62 22 99 23 21 39 27 72 27
24 0 48 -5 54 -11z m279 0 c9 -15 -6 -24 -49 -28 -4 -1 -6 -52 -5 -113 3 -105
4 -113 26 -124 42 -21 35 -24 -51 -24 -51 0 -87 4 -87 10 0 6 11 10 24 10 25
0 25 0 28 120 2 66 1 120 -2 121 -45 6 -55 13 -46 28 8 13 153 13 162 0z"/>
<path d="M1654 959 l-28 -29 27 -28 c29 -29 47 -26 73 14 12 17 10 23 -15 46
l-28 27 -29 -30z"/>
</g>
</svg>
